<svg width="24" height="24" viewBox="0 0 24 24" fill="none" xmlns="http://www.w3.org/2000/svg">
<path d="M17.3581 12.6708C17.3671 11.9738 17.5522 11.2903 17.8964 10.684C18.2405 10.0777 18.7323 9.56832 19.3262 9.20321C18.9489 8.6644 18.4512 8.22098 17.8726 7.90817C17.294 7.59536 16.6504 7.42178 15.993 7.40121C14.5905 7.254 13.2309 8.2404 12.5163 8.2404C11.7878 8.2404 10.6875 7.41582 9.5026 7.4402C8.7362 7.46496 7.98928 7.68783 7.33461 8.08708C6.67995 8.48634 6.13987 9.04836 5.767 9.7184C4.15181 12.5149 5.3566 16.6247 6.90382 18.8852C7.67793 19.9921 8.58264 21.2285 9.76644 21.1846C10.9249 21.1366 11.3575 20.4459 12.7558 20.4459C14.1411 20.4459 14.547 21.1846 15.7549 21.1567C16.9979 21.1366 17.7811 20.0449 18.528 18.9276C19.0842 18.1389 19.5122 17.2672 19.7961 16.3448C19.074 16.0394 18.4577 15.5281 18.0241 14.8748C17.5906 14.2215 17.3589 13.4549 17.3581 12.6708Z" fill="#848D97"/>
<path d="M15.0776 5.91522C15.7554 5.1016 16.0893 4.05583 16.0084 3C14.9729 3.10875 14.0165 3.60364 13.3296 4.38604C12.9937 4.76826 12.7365 5.21293 12.5726 5.69462C12.4087 6.17632 12.3413 6.68559 12.3744 7.19333C12.8923 7.19866 13.4047 7.08641 13.8729 6.86502C14.3412 6.64363 14.7531 6.31888 15.0776 5.91522Z" fill="#848D97"/>
</svg>
