<svg width="29" height="29" viewBox="0 0 29 29" fill="none" xmlns="http://www.w3.org/2000/svg">
<path opacity="0.02" d="M21.1197 0.178467H8.42512C4.18357 0.178467 0.745117 3.61702 0.745117 7.85869V21.2243C0.745117 25.466 4.18357 28.9045 8.42512 28.9045H21.1197C25.3612 28.9045 28.7997 25.466 28.7997 21.2243V7.85869C28.7997 3.61702 25.3612 0.178467 21.1197 0.178467Z" fill="white"/>
<path d="M14.6722 9.7658C11.6087 9.7658 9.45967 11.1079 9.45967 11.1079C10.6371 10.0342 12.6946 9.41568 12.6946 9.41568L12.5003 9.21729C10.5685 9.2523 8.81955 10.6178 8.81955 10.6178C6.85342 14.8075 6.97916 18.4255 6.97916 18.4255C8.5795 20.5379 10.9571 20.3861 10.9571 20.3861L11.7687 19.3358C10.3398 19.0207 9.43682 17.7252 9.43682 17.7252C9.43682 17.7252 11.5858 19.2191 14.6722 19.2191C17.7585 19.2191 19.9075 17.7252 19.9075 17.7252C19.9075 17.7252 19.0045 19.0207 17.5756 19.3358L18.3872 20.3861C18.3872 20.3861 20.7648 20.5379 22.3652 18.4255C22.3652 18.4255 22.4909 14.8075 20.5248 10.6178C20.5248 10.6178 18.7758 9.2523 16.844 9.21729L16.6497 9.41568C16.6497 9.41568 18.7073 10.0342 19.8847 11.1079C19.8847 11.1079 17.7357 9.7658 14.6722 9.7658ZM12.306 14.189C13.049 14.189 13.6548 14.8542 13.6434 15.6712C13.6434 16.4765 13.049 17.1533 12.306 17.1533C11.5744 17.1533 10.98 16.4765 10.98 15.6712C10.98 14.8542 11.563 14.189 12.306 14.189ZM17.0727 14.189C17.8157 14.189 18.4101 14.8542 18.4101 15.6712C18.4101 16.4765 17.8157 17.1533 17.0727 17.1533C16.3411 17.1533 15.7467 16.4765 15.7467 15.6712C15.7467 14.8542 16.3297 14.189 17.0727 14.189Z" fill="white"/>
</svg>
