<svg width="24" height="24" viewBox="0 0 24 24" fill="none" xmlns="http://www.w3.org/2000/svg">
<path d="M16.202 15.2631L21.0522 12.421C21.1613 12.3557 21.2517 12.2634 21.3146 12.1529C21.3774 12.0424 21.4107 11.9176 21.4111 11.7905V11.4994C21.4107 11.3723 21.3774 11.2475 21.3146 11.137C21.2517 11.0265 21.1613 10.9342 21.0522 10.8689L16.202 8.01705L13.0204 11.6352L16.202 15.2631ZM12.2152 10.7137L15.1253 7.38654L4.32894 1.06197C4.23565 1.0211 4.13492 1 4.03308 1C3.93124 1 3.8305 1.0211 3.73722 1.06197L12.2152 10.7137ZM12.2152 12.6053L3.73722 22.3055C3.8305 22.3464 3.93124 22.3675 4.03308 22.3675C4.13492 22.3675 4.23565 22.3464 4.32894 22.3055L15.135 15.9907L12.2152 12.6053ZM3 2.0223V21.2482L11.4101 11.6352L3 2.0223Z" fill="url(#paint0_linear_126_8191)"/>
<path d="M16.202 15.2631L21.0522 12.421C21.1613 12.3557 21.2517 12.2634 21.3146 12.1529C21.3774 12.0424 21.4107 11.9176 21.4111 11.7905V11.4994C21.4107 11.3723 21.3774 11.2475 21.3146 11.137C21.2517 11.0265 21.1613 10.9342 21.0522 10.8689L16.202 8.01705L13.0204 11.6352L16.202 15.2631ZM12.2152 10.7137L15.1253 7.38654L4.32894 1.06197C4.23565 1.0211 4.13492 1 4.03308 1C3.93124 1 3.8305 1.0211 3.73722 1.06197L12.2152 10.7137ZM12.2152 12.6053L3.73722 22.3055C3.8305 22.3464 3.93124 22.3675 4.03308 22.3675C4.13492 22.3675 4.23565 22.3464 4.32894 22.3055L15.135 15.9907L12.2152 12.6053ZM3 2.0223V21.2482L11.4101 11.6352L3 2.0223Z" fill="#848D97"/>
<defs>
<linearGradient id="paint0_linear_126_8191" x1="29.25" y1="0.999999" x2="12.2055" y2="22.3675" gradientUnits="userSpaceOnUse">
<stop stop-color="#837DFF"/>
<stop offset="1" stop-color="#8649E2"/>
</linearGradient>
</defs>
</svg>
