<svg width="24" height="24" viewBox="0 0 24 24" fill="none" xmlns="http://www.w3.org/2000/svg">
<path fill-rule="evenodd" clip-rule="evenodd" d="M6 2.25C4.48122 2.25 3.25 3.48122 3.25 5V19C3.25 20.5188 4.48122 21.75 6 21.75H18C19.5188 21.75 20.75 20.5188 20.75 19V5C20.75 3.48122 19.5188 2.25 18 2.25H6ZM4.75 5C4.75 4.30964 5.30964 3.75 6 3.75H18C18.6904 3.75 19.25 4.30964 19.25 5V19C19.25 19.6904 18.6904 20.25 18 20.25H6C5.30964 20.25 4.75 19.6904 4.75 19V5ZM12.5303 6.46967C12.2374 6.17678 11.7626 6.17678 11.4697 6.46967L8.54371 9.39563C8.25082 9.68852 8.25082 10.1634 8.54371 10.4563C8.8366 10.7492 9.31148 10.7492 9.60437 10.4563L11.25 8.81066V13.3449C11.25 13.7591 11.5858 14.0949 12 14.0949C12.4142 14.0949 12.75 13.7591 12.75 13.3449V8.81066L14.3956 10.4563C14.6885 10.7492 15.1634 10.7492 15.4563 10.4563C15.7492 10.1634 15.7492 9.68852 15.4563 9.39563L12.5303 6.46967ZM8 16.25C7.58579 16.25 7.25 16.5858 7.25 17C7.25 17.4142 7.58579 17.75 8 17.75H16C16.4142 17.75 16.75 17.4142 16.75 17C16.75 16.5858 16.4142 16.25 16 16.25H8Z" fill="white"/>
</svg>
