<svg width="24" height="24" viewBox="0 0 24 24" fill="none" xmlns="http://www.w3.org/2000/svg">
<path fill-rule="evenodd" clip-rule="evenodd" d="M5 2.25C4.0335 2.25 3.25 3.0335 3.25 4V19C3.25 19.9665 4.0335 20.75 5 20.75H17C18.4774 20.75 19.5014 20.488 20.1836 20.082C20.8612 19.6786 21.25 19.091 21.25 18.5V15C21.25 14.5858 20.9142 14.25 20.5 14.25H17.75V3C17.75 2.58579 17.4142 2.25 17 2.25H5ZM17.75 15.75V19.2214C18.6091 19.1518 19.1251 18.9664 19.4164 18.793C19.6925 18.6287 19.7426 18.4969 19.75 18.4769V15.75H17.75ZM4.75 4C4.75 3.86193 4.86193 3.75 5 3.75H16.25V19.25H5C4.86193 19.25 4.75 19.1381 4.75 19V4ZM14 9.75H7V8.25H14V9.75ZM7 13.75H11.5V12.25H7V13.75Z" fill="white"/>
</svg>
