<svg width="24" height="24" viewBox="0 0 24 24" fill="none" xmlns="http://www.w3.org/2000/svg">
<path fill-rule="evenodd" clip-rule="evenodd" d="M3.25 5C3.25 4.0335 4.0335 3.25 5 3.25H19C19.9665 3.25 20.75 4.0335 20.75 5V19C20.75 19.9665 19.9665 20.75 19 20.75H5C4.0335 20.75 3.25 19.9665 3.25 19V5ZM5 4.75C4.86193 4.75 4.75 4.86193 4.75 5V15.0616C4.89069 14.9941 5.03998 14.9286 5.19711 14.8659C6.06171 14.521 7.19744 14.25 8.50001 14.25C9.90411 14.25 10.9962 14.5671 11.7821 14.9772C11.9066 13.9909 12.3891 13.1933 13.1641 12.6397C14.0371 12.0161 15.2115 11.75 16.5 11.75C17.7418 11.75 18.6076 11.9969 19.25 12.3616V5C19.25 4.86193 19.1381 4.75 19 4.75H5ZM19.25 14.2994C19.2406 14.2892 19.2312 14.279 19.2219 14.2689L19.2218 14.2688C19.0295 14.0594 18.8676 13.8831 18.572 13.7028C18.1992 13.4755 17.5906 13.25 16.5 13.25C15.3885 13.25 14.5629 13.4839 14.0359 13.8603C13.5435 14.212 13.25 14.729 13.25 15.5V19.25H19C19.1381 19.25 19.25 19.1381 19.25 19V14.2994ZM11.75 19.25V16.7707C11.3941 16.4211 10.3864 15.75 8.50001 15.75C7.40259 15.75 6.45498 15.979 5.75292 16.2591C5.40163 16.3993 5.1203 16.5488 4.91776 16.6817C4.8478 16.7276 4.79267 16.768 4.75 16.8017V19C4.75 19.1381 4.86193 19.25 5 19.25H11.75ZM8 13C8.82843 13 9.5 12.3284 9.5 11.5C9.5 10.6716 8.82843 10 8 10C7.17157 10 6.5 10.6716 6.5 11.5C6.5 12.3284 7.17157 13 8 13ZM17.5 9C17.5 9.82843 16.8284 10.5 16 10.5C15.1716 10.5 14.5 9.82843 14.5 9C14.5 8.17157 15.1716 7.5 16 7.5C16.8284 7.5 17.5 8.17157 17.5 9Z" fill="white"/>
</svg>
