<svg width="24" height="24" viewBox="0 0 24 24" fill="none" xmlns="http://www.w3.org/2000/svg">
<path fill-rule="evenodd" clip-rule="evenodd" d="M4.75 4C4.75 3.86193 4.86193 3.75 5 3.75H18.5C18.6381 3.75 18.75 3.86193 18.75 4V16.0194C18.75 16.0953 18.7155 16.1671 18.6562 16.2146L14.3054 19.6952C14.2611 19.7307 14.206 19.75 14.1492 19.75H5C4.86193 19.75 4.75 19.6381 4.75 19.5V4ZM5 2.25C4.0335 2.25 3.25 3.0335 3.25 4V19.5C3.25 20.4665 4.0335 21.25 5 21.25H14.1492C14.5466 21.25 14.9321 21.1148 15.2424 20.8665L19.5932 17.3859C20.0083 17.0538 20.25 16.551 20.25 16.0194V4C20.25 3.0335 19.4665 2.25 18.5 2.25H5ZM7.25 9C7.25 8.58579 7.58579 8.25 8 8.25H16C16.4142 8.25 16.75 8.58579 16.75 9C16.75 9.41421 16.4142 9.75 16 9.75H8C7.58579 9.75 7.25 9.41421 7.25 9ZM7.25 14C7.25 13.5858 7.58579 13.25 8 13.25H13C13.4142 13.25 13.75 13.5858 13.75 14C13.75 14.4142 13.4142 14.75 13 14.75H8C7.58579 14.75 7.25 14.4142 7.25 14Z" fill="white"/>
</svg>
