<svg width="24" height="24" viewBox="0 0 24 24" fill="none" xmlns="http://www.w3.org/2000/svg">
<path fill-rule="evenodd" clip-rule="evenodd" d="M20.0118 6.43622L12.6746 2.18837C12.1477 1.88334 11.4979 1.88334 10.9711 2.18837L3.63388 6.43622C3.10889 6.74016 2.78564 7.30082 2.78564 7.90744V16.4041C2.78564 17.0107 3.10889 17.5714 3.63388 17.8753L10.9711 22.1232C11.498 22.4282 12.1477 22.4282 12.6746 22.1232L20.0118 17.8753C20.5368 17.5714 20.86 17.0107 20.86 16.4041V7.90744C20.86 7.30082 20.5368 6.74016 20.0118 6.43622ZM11.7226 3.48651C11.7846 3.45062 11.8611 3.45062 11.923 3.48651L19.2602 7.73436C19.322 7.77011 19.36 7.83607 19.36 7.90744V16.4041C19.36 16.4755 19.322 16.5414 19.2602 16.5772L11.923 20.825C11.8611 20.8609 11.7846 20.8609 11.7226 20.825L4.38544 16.5772C4.32367 16.5414 4.28564 16.4755 4.28564 16.4041V7.90744C4.28564 7.83607 4.32367 7.77011 4.38544 7.73436L11.7226 3.48651ZM16.5475 9.39974C16.755 9.75821 16.6327 10.217 16.2742 10.4246L12.5371 12.5882V16.231C12.5371 16.6453 12.2013 16.981 11.7871 16.981C11.3729 16.981 11.0371 16.6453 11.0371 16.231V12.5847L7.72825 10.6383C7.37123 10.4283 7.25205 9.96858 7.46207 9.61155C7.67208 9.25453 8.13176 9.13535 8.48878 9.34537L11.7902 11.2874L15.5227 9.12645C15.8811 8.91891 16.34 9.04127 16.5475 9.39974Z" fill="white"/>
</svg>
