<svg width="24" height="24" viewBox="0 0 24 24" fill="none" xmlns="http://www.w3.org/2000/svg">
<path fill-rule="evenodd" clip-rule="evenodd" d="M12.1554 3.35574C11.9245 3.21816 11.6377 3.21461 11.4036 3.34642L1.63212 8.84642C1.39607 8.97929 1.25 9.22912 1.25 9.5C1.25 9.77088 1.39607 10.0207 1.63212 10.1536L11.4036 15.6536C11.6377 15.7854 11.9245 15.7818 12.1554 15.6443L20.25 10.8201V14.5C20.25 14.9142 20.5858 15.25 21 15.25C21.4142 15.25 21.75 14.9142 21.75 14.5V9.5C21.75 9.23576 21.611 8.99102 21.384 8.85574L12.1554 3.35574ZM11.7607 14.1333L3.52904 9.5L11.7607 4.86669L19.535 9.5L11.7607 14.1333ZM5 13.25C5.41421 13.25 5.75 13.5858 5.75 14V17.3052C6.24496 18.1029 7.98059 19.75 11.5 19.75C15.035 19.75 16.4395 17.785 16.75 16.8852V14.5C16.75 14.0858 17.0858 13.75 17.5 13.75C17.9142 13.75 18.25 14.0858 18.25 14.5V17C18.25 17.0697 18.2403 17.139 18.2211 17.206C17.7973 18.6896 15.8401 21.25 11.5 21.25C7.24206 21.25 4.96751 19.1121 4.32918 17.8354C4.27711 17.7313 4.25 17.6164 4.25 17.5V14C4.25 13.5858 4.58579 13.25 5 13.25Z" fill="white"/>
</svg>
