<svg width="24" height="24" viewBox="0 0 24 24" fill="none" xmlns="http://www.w3.org/2000/svg">
<path fill-rule="evenodd" clip-rule="evenodd" d="M3 17.5C3 18.3284 3.67157 19 4.5 19H11.5C16.1944 19 20 15.1944 20 10.5C20 5.80558 16.1944 2 11.5 2C6.80558 2 3 5.80558 3 10.5V17.5ZM18.5 10.5C18.5 14.366 15.366 17.5 11.5 17.5H4.5V10.5C4.5 6.63401 7.63401 3.5 11.5 3.5C15.366 3.5 18.5 6.63401 18.5 10.5ZM12.9574 10.65C12.5586 10.9787 12.2382 11.2429 12.2382 11.819V12.3939C12.2382 13.474 10.6115 13.474 10.6115 12.3939V11.8322C10.6115 10.6909 11.0641 10.2856 11.7063 9.71068C11.8215 9.60758 11.9427 9.49903 12.0686 9.37979C12.2646 9.19695 12.3211 9.04238 12.3211 8.84634V8.38452C12.3211 7.95097 11.9705 7.61355 11.5087 7.61355H11.439C10.9771 7.61355 10.6265 7.94908 10.6265 8.38452V8.39771C10.6265 9.47781 8.99979 9.47781 8.99979 8.39771V8.27142C8.99979 6.92553 10.0931 6 11.439 6H11.5087C12.8546 6 13.9479 6.92553 13.9479 8.27142V8.84634C13.9479 9.68893 13.4993 10.1922 13.1355 10.5014C13.0749 10.553 13.0153 10.6022 12.9574 10.65ZM10.6133 15.1139V14.7765C10.6133 14.2864 11.0205 14.0338 11.4258 14.0338C11.831 14.0338 12.2382 14.2864 12.2382 14.7765V15.1139C12.2382 15.604 11.8329 15.8566 11.4258 15.8566C11.0205 15.8566 10.6133 15.604 10.6133 15.1139Z" fill="white"/>
</svg>
