<svg width="24" height="24" viewBox="0 0 24 24" fill="none" xmlns="http://www.w3.org/2000/svg">
<path fill-rule="evenodd" clip-rule="evenodd" d="M3.75 12C3.75 7.44365 7.44365 3.75 12 3.75C16.5563 3.75 20.25 7.44365 20.25 12C20.25 16.5563 16.5563 20.25 12 20.25C7.44365 20.25 3.75 16.5563 3.75 12ZM12 2.25C6.61522 2.25 2.25 6.61522 2.25 12C2.25 17.3848 6.61522 21.75 12 21.75C17.3848 21.75 21.75 17.3848 21.75 12C21.75 6.61522 17.3848 2.25 12 2.25ZM11.7124 7.22703L7.46978 11.4697C7.17689 11.7626 7.17689 12.2374 7.46978 12.5303L11.7124 16.773C12.0053 17.0659 12.4802 17.0659 12.7731 16.773L17.0157 12.5303C17.3086 12.2374 17.3086 11.7626 17.0157 11.4697L12.7731 7.22703C12.4802 6.93414 12.0053 6.93414 11.7124 7.22703ZM12.2428 15.182L9.06077 12L12.2428 8.81802L15.4247 12L12.2428 15.182Z" fill="white"/>
</svg>
