<svg width="24" height="24" viewBox="0 0 24 24" fill="none" xmlns="http://www.w3.org/2000/svg">
<path fill-rule="evenodd" clip-rule="evenodd" d="M15.3111 6.73684C15.3111 8.5245 13.8619 9.97368 12.0742 9.97368C10.2866 9.97368 8.8374 8.5245 8.8374 6.73684C8.8374 4.94918 10.2866 3.5 12.0742 3.5C13.8619 3.5 15.3111 4.94918 15.3111 6.73684ZM16.8111 6.73684C16.8111 9.35293 14.6903 11.4737 12.0742 11.4737C9.45816 11.4737 7.3374 9.35293 7.3374 6.73684C7.3374 4.12076 9.45816 2 12.0742 2C14.6903 2 16.8111 4.12076 16.8111 6.73684ZM11.7397 20.2501C9.13853 20.2501 6.76704 19.272 4.97104 17.6621C6.4778 15.5478 8.94829 14.1711 11.7397 14.1711C14.5311 14.1711 17.0016 15.5478 18.5083 17.662C16.7123 19.272 14.3408 20.2501 11.7397 20.2501ZM11.7397 12.6711C8.18858 12.6711 5.07914 14.5593 3.35943 17.3829L3.0542 17.884L3.46718 18.3009C5.57659 20.43 8.50465 21.7501 11.7397 21.7501C14.9747 21.7501 17.9028 20.4299 20.0122 18.3008L20.4252 17.8839L20.12 17.3828C18.4002 14.5593 15.2908 12.6711 11.7397 12.6711Z" fill="white"/>
</svg>
