<svg width="24" height="24" viewBox="0 0 24 24" fill="none" xmlns="http://www.w3.org/2000/svg">
<path fill-rule="evenodd" clip-rule="evenodd" d="M4.75 4C4.75 3.86193 4.86193 3.75 5 3.75H19C19.1381 3.75 19.25 3.86193 19.25 4V15.846C19.25 15.9453 19.1912 16.0352 19.1002 16.075L12.1002 19.1375C12.0363 19.1655 11.9637 19.1655 11.8998 19.1375L4.8998 16.075C4.8088 16.0352 4.75 15.9453 4.75 15.846V4ZM5 2.25C4.0335 2.25 3.25 3.0335 3.25 4V15.846C3.25 16.5413 3.66159 17.1706 4.29857 17.4493L11.2986 20.5118C11.7457 20.7074 12.2543 20.7074 12.7014 20.5118L19.7014 17.4493C20.3384 17.1706 20.75 16.5413 20.75 15.846V4C20.75 3.0335 19.9665 2.25 19 2.25H5ZM13.2193 13.0859C12.9181 13.3078 12.5575 13.4188 12.1374 13.4188C11.6935 13.4188 11.2972 13.2999 10.9485 13.0621C10.5997 12.8243 10.3223 12.4835 10.1162 12.0396C9.9181 11.5958 9.81902 11.0806 9.81902 10.4941C9.81902 9.90753 9.9181 9.3963 10.1162 8.96037C10.3223 8.51651 10.5997 8.17569 10.9485 7.93791C11.2972 7.70013 11.6935 7.58124 12.1374 7.58124C12.5575 7.58124 12.9181 7.69221 13.2193 7.91413C13.5284 8.13606 13.7741 8.44518 13.9564 8.84148L15.395 8.00925C15.181 7.42272 14.7886 6.9432 14.218 6.57067C13.6473 6.19022 12.9657 6 12.1731 6C11.4042 6 10.6988 6.18626 10.0568 6.55879C9.42272 6.93131 8.91942 7.45839 8.5469 8.14003C8.1823 8.82166 8 9.60634 8 10.4941C8 11.3818 8.18626 12.1704 8.55878 12.86C8.93131 13.5416 9.43461 14.0687 10.0687 14.4412C10.7028 14.8137 11.4042 15 12.1731 15C12.9657 15 13.6473 14.8137 14.218 14.4412C14.7886 14.0608 15.181 13.5773 15.395 12.9908L13.9564 12.1585C13.7741 12.5548 13.5284 12.8639 13.2193 13.0859Z" fill="white"/>
</svg>
