<svg width="24" height="24" viewBox="0 0 24 24" fill="none" xmlns="http://www.w3.org/2000/svg">
<path fill-rule="evenodd" clip-rule="evenodd" d="M6.75 8.5C6.75 7.93379 6.99555 7.00526 7.78596 6.21934C8.56084 5.44886 9.92721 4.75 12.2857 4.75C14.6442 4.75 16.0106 5.44886 16.7855 6.21934C17.5759 7.00526 17.8214 7.93379 17.8214 8.5V16C17.8214 16.4142 18.1572 16.75 18.5714 16.75H20.2857C20.7174 16.75 21.3257 16.6059 21.8395 16.1743C22.3826 15.7181 22.75 14.9993 22.75 14C22.75 12.9722 22.6125 12.1289 22.168 11.5455C21.6743 10.8975 20.9547 10.75 20.2857 10.75H19.3214V8.5C19.3214 7.56621 18.9384 6.24474 17.8431 5.15566C16.7323 4.05114 14.9558 3.25 12.2857 3.25C9.61565 3.25 7.83916 4.05114 6.72833 5.15566C5.63302 6.24474 5.25 7.56621 5.25 8.5V11.25H4.5C4.12998 11.25 3.59165 11.3548 3.12427 11.6913C2.61865 12.0554 2.25 12.6556 2.25 13.5V15C2.25 15.3679 2.40656 15.8199 2.79044 16.1753C3.18556 16.5412 3.75885 16.75 4.5 16.75H5.2544C5.30006 18.0312 5.69965 19.03 6.38897 19.7693C7.10907 20.5416 8.07325 20.9528 9.05198 21.1697C10.6754 21.5296 12.5681 21.3933 13.9311 21.2951C14.1781 21.2774 14.4077 21.2608 14.6151 21.2487C15.0117 21.2256 15.3214 20.8972 15.3214 20.5V17C15.3214 16.5858 14.9856 16.25 14.5714 16.25H11.1429V17.75H13.8214V19.798L13.7644 19.802C12.3885 19.8986 10.7635 20.0127 9.3766 19.7053C8.56961 19.5264 7.92664 19.2189 7.48603 18.7463C7.05885 18.2882 6.75 17.598 6.75 16.5V8.5ZM5.25 15.25V12.75H4.5C4.37002 12.75 4.15835 12.7952 4.00073 12.9087C3.88135 12.9946 3.75 13.1444 3.75 13.5V14.9877L3.75085 14.9899C3.75396 14.9991 3.76595 15.0343 3.80956 15.0747C3.86444 15.1255 4.04115 15.25 4.5 15.25H5.25ZM19.3214 15.25V12.25H20.2857C20.7595 12.25 20.8971 12.3525 20.9749 12.4545C21.1018 12.6211 21.25 13.0278 21.25 14C21.25 14.6007 21.0459 14.8819 20.8747 15.0257C20.6743 15.1941 20.4254 15.25 20.2857 15.25H19.3214ZM9.85699 11.1141C10.0701 10.7589 10.5308 10.6438 10.886 10.8569C11.594 11.2817 12.9254 11.6484 14.0841 10.876C14.4287 10.6462 14.8944 10.7393 15.1242 11.084C15.3539 11.4286 15.2608 11.8943 14.9161 12.124C13.0748 13.3516 11.0729 12.7183 10.1142 12.1431C9.75906 11.93 9.64388 11.4693 9.85699 11.1141Z" fill="white"/>
</svg>
