<svg width="30" height="30" viewBox="0 0 30 30" fill="none" xmlns="http://www.w3.org/2000/svg">
<g opacity="0.7">
<path d="M21.7874 0H8.21258C3.6769 0 0 3.59105 0 8.02083V21.9792C0 26.4089 3.6769 30 8.21258 30H21.7874C26.3231 30 30 26.4089 30 21.9792V8.02083C30 3.59105 26.3231 0 21.7874 0Z" fill="#232323"/>
<path d="M14.9982 9.86889C12.1587 9.86889 9.86719 12.1604 9.86719 14.9999C9.86719 17.8393 12.1587 20.1308 14.9982 20.1308C17.8376 20.1308 20.1291 17.8393 20.1291 14.9999C20.1291 12.1604 17.8376 9.86889 14.9982 9.86889ZM14.9982 18.3346C13.1619 18.3346 11.6634 16.8361 11.6634 14.9999C11.6634 13.1636 13.1619 11.6651 14.9982 11.6651C16.8344 11.6651 18.3329 13.1636 18.3329 14.9999C18.3329 16.8361 16.8344 18.3346 14.9982 18.3346ZM20.3393 8.46294C19.6763 8.46294 19.1409 8.9983 19.1409 9.66125C19.1409 10.3242 19.6763 10.8596 20.3393 10.8596C21.0022 10.8596 21.5376 10.3267 21.5376 9.66125C21.5351 8.9958 21.0022 8.46294 20.3393 8.46294Z" fill="white"/>
<path d="M24.9993 15C24.9993 13.6191 25.0118 12.2506 24.9342 10.8722C24.8567 9.27113 24.4914 7.85017 23.3206 6.67938C22.1473 5.50609 20.7289 5.14334 19.1278 5.06579C17.7469 4.98824 16.3784 5.00074 15 5.00074C13.6191 5.00074 12.2506 4.98824 10.8722 5.06579C9.27113 5.14334 7.85017 5.50859 6.67938 6.67938C5.50609 7.85267 5.14334 9.27113 5.06579 10.8722C4.98824 12.2531 5.00074 13.6216 5.00074 15C5.00074 16.3784 4.98824 17.7494 5.06579 19.1278C5.14334 20.7289 5.50859 22.1498 6.67938 23.3206C7.85267 24.4939 9.27113 24.8567 10.8722 24.9342C12.2531 25.0118 13.6216 24.9993 15 24.9993C16.3809 24.9993 17.7494 25.0118 19.1278 24.9342C20.7289 24.8567 22.1498 24.4914 23.3206 23.3206C24.4939 22.1473 24.8567 20.7289 24.9342 19.1278C25.0143 17.7494 24.9993 16.3809 24.9993 15ZM22.7978 20.899C22.6151 21.3543 22.395 21.6945 22.0423 22.0448C21.6895 22.3975 21.3518 22.6176 20.8965 22.8003C19.5806 23.3231 16.456 23.2055 14.9975 23.2055C13.539 23.2055 10.4119 23.3231 9.09601 22.8028C8.6407 22.6201 8.30047 22.4 7.95024 22.0473C7.5975 21.6945 7.37735 21.3568 7.19473 20.9015C6.67438 19.5831 6.79195 16.4585 6.79195 15C6.79195 13.5415 6.67438 10.4144 7.19473 9.09851C7.37735 8.6432 7.5975 8.30298 7.95024 7.95274C8.30298 7.6025 8.6407 7.37985 9.09601 7.19723C10.4119 6.67688 13.539 6.79446 14.9975 6.79446C16.456 6.79446 19.5831 6.67688 20.899 7.19723C21.3543 7.37985 21.6945 7.6 22.0448 7.95274C22.3975 8.30548 22.6176 8.6432 22.8003 9.09851C23.3206 10.4144 23.203 13.5415 23.203 15C23.203 16.4585 23.3206 19.5831 22.7978 20.899Z" fill="white"/>
</g>
</svg>
