<svg width="29" height="29" viewBox="0 0 29 29" fill="none" xmlns="http://www.w3.org/2000/svg">
<g opacity="0.9">
<path opacity="0.02" d="M20.9165 0.178467H8.22199C3.98045 0.178467 0.541992 3.61702 0.541992 7.85869V21.2243C0.541992 25.466 3.98045 28.9045 8.22199 28.9045H20.9165C25.1581 28.9045 28.5965 25.466 28.5965 21.2243V7.85869C28.5965 3.61702 25.1581 0.178467 20.9165 0.178467Z" fill="white"/>
<path d="M14.2513 5.66309C9.20057 5.66309 5.1084 9.75537 5.1084 14.8062C5.1084 19.8571 9.20057 23.9493 14.2513 23.9493C19.302 23.9493 23.3941 19.8571 23.3941 14.8062C23.3941 9.75537 19.302 5.66309 14.2513 5.66309ZM18.7416 11.9269L17.2411 18.998C17.1305 19.4994 16.8319 19.6211 16.4153 19.3851L14.1296 17.7003L13.0273 18.7621C12.9056 18.8837 12.8024 18.987 12.5665 18.987L12.7287 16.6606L16.9646 12.8338C17.149 12.6716 16.9241 12.5794 16.6808 12.7416L11.4457 16.0376L9.18951 15.3334C8.69918 15.1786 8.68812 14.8431 9.29273 14.6071L18.1075 11.2079C18.5167 11.0605 18.8743 11.3075 18.7416 11.9269Z" fill="white"/>
</g>
</svg>
