<svg width="29" height="29" viewBox="0 0 29 29" fill="none" xmlns="http://www.w3.org/2000/svg">
<path opacity="0.02" d="M20.9536 0.178467H8.2591C4.01755 0.178467 0.579102 3.61702 0.579102 7.85869V21.2243C0.579102 25.466 4.01755 28.9045 8.2591 28.9045H20.9536C25.1952 28.9045 28.6336 25.466 28.6336 21.2243V7.85869C28.6336 3.61702 25.1952 0.178467 20.9536 0.178467Z" fill="white"/>
<path d="M19.045 8.42261H21.2164L16.4725 13.8447L22.0533 21.223H17.6836L14.2611 16.7481L10.3449 21.223H8.17221L13.2463 15.4234L7.89258 8.42261H12.3732L15.4669 12.5128L19.045 8.42261ZM18.2829 19.9233H19.4861L11.7194 9.65407H10.4283L18.2829 19.9233Z" fill="#F8F8F8"/>
</svg>
